<?xml version="1.0" encoding="UTF-8"?> <svg xmlns="http://www.w3.org/2000/svg" width="318" height="221" viewBox="0 0 318 221" fill="none"> <g clip-path="url(#clip0_88_686)"> <path d="M38.212 146.344C8.53675 157.32 -8.13016 182.523 -8.13016 182.523L-11.7887 252.85L354.07 240.654L320.736 70.7331C320.736 70.7331 314.232 41.4643 278.053 41.4643C252.443 41.4643 263.825 1.90868 238.621 2.43937C211.385 3.01287 238.621 41.4643 200.816 41.4643C176.019 41.4643 185.775 73.415 160.978 74.7981C141.922 75.861 140.246 47.1555 119.107 49.5945C97.9689 49.5945 107.725 79.4176 77.2369 84.9609C50.4073 89.839 69.9198 139.027 38.212 146.344Z" fill="url(#paint0_linear_88_686)" fill-opacity="0.3" stroke="#6FE485" stroke-width="1.62604" stroke-linecap="round"></path> <mask id="mask0_88_686" style="mask-type:alpha" maskUnits="userSpaceOnUse" x="-13" y="1" width="369" height="253"> <path opacity="0.3" d="M38.212 146.344C8.53675 157.32 -8.13016 182.523 -8.13016 182.523L-11.7887 252.85L354.07 240.654L320.736 70.7331C320.736 70.7331 314.232 41.4643 278.053 41.4643C252.443 41.4643 263.825 1.90868 238.621 2.43937C211.385 3.01287 238.621 41.4643 200.816 41.4643C176.019 41.4643 185.775 73.415 160.978 74.7981C141.922 75.861 140.246 47.1555 119.107 49.5945C97.9689 49.5945 107.725 79.4176 77.2369 84.9609C50.4073 89.839 69.9198 139.027 38.212 146.344Z" fill="white" stroke="#6FE485" stroke-width="1.62604" stroke-linecap="round"></path> </mask> <g mask="url(#mask0_88_686)"> <path d="M38.2119 -16.2615V195.125M78.8629 -16.2615V195.125M119.514 -16.2615V195.125M160.165 -16.2615V195.125M200.816 -16.2615V195.125M241.467 -16.2615V195.125M282.118 -16.2615V195.125" stroke="white" stroke-opacity="0.5" stroke-width="0.81302" stroke-dasharray="3.25 3.25" style="mix-blend-mode:overlay"></path> </g> </g> <defs> <linearGradient id="paint0_linear_88_686" x1="159.097" y1="-4.2105" x2="159.247" y2="204.068" gradientUnits="userSpaceOnUse"> <stop stop-color="#6FE485"></stop> <stop offset="1" stop-color="#6FE485" stop-opacity="0"></stop> </linearGradient> <clipPath id="clip0_88_686"> <rect width="317.078" height="220.328" fill="white"></rect> </clipPath> </defs> </svg> 